%TF.GenerationSoftware,KiCad,Pcbnew,9.0.7*%
%TF.CreationDate,2026-05-23T10:54:07+05:30*%
%TF.ProjectId,ProPrj_Usb_Hub_2026-05-23,50726f50-726a-45f5-9573-625f4875625f,rev?*%
%TF.SameCoordinates,Original*%
%TF.FileFunction,Soldermask,Top*%
%TF.FilePolarity,Negative*%
%FSLAX46Y46*%
G04 Gerber Fmt 4.6, Leading zero omitted, Abs format (unit mm)*
G04 Created by KiCad (PCBNEW 9.0.7) date 2026-05-23 10:54:07*
%MOMM*%
%LPD*%
G01*
G04 APERTURE LIST*
%ADD10R,0.864000X0.806500*%
%ADD11R,0.800000X0.900000*%
%ADD12O,1.100000X2.000000*%
%ADD13O,1.200000X1.800000*%
%ADD14R,0.550000X1.100000*%
%ADD15R,0.300000X1.100000*%
%ADD16R,0.900000X0.800000*%
%ADD17R,1.120000X2.880000*%
%ADD18O,1.200000X3.100000*%
%ADD19R,0.806500X0.864000*%
%ADD20R,0.250000X1.200000*%
%ADD21O,2.000000X1.100000*%
%ADD22O,1.800000X1.200000*%
%ADD23R,1.100000X0.550000*%
%ADD24R,1.100000X0.300000*%
G04 APERTURE END LIST*
D10*
%TO.C,R2*%
X156764500Y-108728000D03*
X156764500Y-110235000D03*
%TD*%
D11*
%TO.C,C1*%
X133479000Y-103622000D03*
X132079000Y-103622000D03*
%TD*%
D12*
%TO.C,USB6*%
X150679000Y-113989000D03*
D13*
X150679000Y-118189000D03*
D12*
X159329000Y-113989000D03*
D13*
X159329000Y-118189000D03*
D14*
X151804000Y-113439000D03*
X152604000Y-113439000D03*
D15*
X153754000Y-113439000D03*
X154754000Y-113439000D03*
X155254000Y-113439000D03*
X156254000Y-113439000D03*
D14*
X158204000Y-113439000D03*
X157404000Y-113439000D03*
D15*
X156754000Y-113439000D03*
X155754000Y-113439000D03*
X154254000Y-113439000D03*
X153254000Y-113439000D03*
%TD*%
D16*
%TO.C,C6*%
X141226000Y-97021000D03*
X141226000Y-95621000D03*
%TD*%
D17*
%TO.C,USB3*%
X158377000Y-99889000D03*
X155877000Y-99889000D03*
X153877000Y-99889000D03*
X151377000Y-99889000D03*
D18*
X161327000Y-91099000D03*
X148427000Y-91099000D03*
%TD*%
D10*
%TO.C,R3*%
X124506500Y-109109000D03*
X124506500Y-110616000D03*
%TD*%
D16*
%TO.C,C11*%
X143320000Y-96956000D03*
X143320000Y-95556000D03*
%TD*%
D19*
%TO.C,R5*%
X158196000Y-102851500D03*
X159703000Y-102851500D03*
%TD*%
D11*
%TO.C,C9*%
X145287000Y-106543000D03*
X146687000Y-106543000D03*
%TD*%
%TO.C,C2*%
X133477500Y-105531500D03*
X132077500Y-105531500D03*
%TD*%
D16*
%TO.C,C3*%
X139002000Y-96956000D03*
X139002000Y-95556000D03*
%TD*%
D11*
%TO.C,C10*%
X145163000Y-108705000D03*
X146563000Y-108705000D03*
%TD*%
D16*
%TO.C,C5*%
X159260000Y-110102000D03*
X159260000Y-108702000D03*
%TD*%
D20*
%TO.C,U1*%
X138290000Y-106438000D03*
X138820000Y-106438000D03*
X139350000Y-106438000D03*
X139880000Y-106438000D03*
X140410000Y-106438000D03*
X140940000Y-106438000D03*
X141470000Y-106438000D03*
X142000000Y-106438000D03*
X142000000Y-102838000D03*
X141470000Y-102838000D03*
X140940000Y-102838000D03*
X140410000Y-102838000D03*
X139880000Y-102838000D03*
X139350000Y-102838000D03*
X138820000Y-102838000D03*
X138290000Y-102838000D03*
%TD*%
D11*
%TO.C,C7*%
X145160000Y-104257000D03*
X146560000Y-104257000D03*
%TD*%
D17*
%TO.C,USB2*%
X129548000Y-99762000D03*
X127048000Y-99762000D03*
X125048000Y-99762000D03*
X122548000Y-99762000D03*
D18*
X132498000Y-90972000D03*
X119598000Y-90972000D03*
%TD*%
D11*
%TO.C,C8*%
X149605000Y-104384000D03*
X151005000Y-104384000D03*
%TD*%
D10*
%TO.C,R1*%
X144327500Y-114942000D03*
X144327500Y-116449000D03*
%TD*%
D12*
%TO.C,USB5*%
X121469000Y-113989000D03*
D13*
X121469000Y-118189000D03*
D12*
X130119000Y-113989000D03*
D13*
X130119000Y-118189000D03*
D14*
X122594000Y-113439000D03*
X123394000Y-113439000D03*
D15*
X124544000Y-113439000D03*
X125544000Y-113439000D03*
X126044000Y-113439000D03*
X127044000Y-113439000D03*
D14*
X128994000Y-113439000D03*
X128194000Y-113439000D03*
D15*
X127544000Y-113439000D03*
X126544000Y-113439000D03*
X125044000Y-113439000D03*
X124044000Y-113439000D03*
%TD*%
D11*
%TO.C,C4*%
X133477500Y-107560500D03*
X132077500Y-107560500D03*
%TD*%
D10*
%TO.C,R6*%
X166942000Y-112884500D03*
X166942000Y-111377500D03*
%TD*%
D19*
%TO.C,R4*%
X133642000Y-114036000D03*
X132135000Y-114036000D03*
%TD*%
D21*
%TO.C,USB1*%
X164609000Y-108963000D03*
D22*
X168809000Y-108963000D03*
D21*
X164609000Y-100313000D03*
D22*
X168809000Y-100313000D03*
D23*
X164059000Y-107838000D03*
X164059000Y-107038000D03*
D24*
X164059000Y-105888000D03*
X164059000Y-104888000D03*
X164059000Y-104388000D03*
X164059000Y-103388000D03*
D23*
X164059000Y-101438000D03*
X164059000Y-102238000D03*
D24*
X164059000Y-102888000D03*
X164059000Y-103888000D03*
X164059000Y-105388000D03*
X164059000Y-106388000D03*
%TD*%
M02*
