M48
; DRILL file {KiCad 9.0.7} date 2026-05-23T10:53:48+0530
; FORMAT={-:-/ absolute / metric / decimal}
; #@! TF.CreationDate,2026-05-23T10:53:48+05:30
; #@! TF.GenerationSoftware,Kicad,Pcbnew,9.0.7
; #@! TF.FileFunction,Plated,1,2,PTH
FMAT,2
METRIC
; #@! TA.AperFunction,Plated,PTH,ViaDrill
T1C0.305
; #@! TA.AperFunction,Plated,PTH,ComponentDrill
T2C0.600
; #@! TA.AperFunction,Plated,PTH,ComponentDrill
T3C0.700
%
G90
G05
T1
X118.174Y-90.795
X121.469Y-111.369
X124.506Y-107.432
X130.239Y-105.527
X132.398Y-118.189
X134.176Y-90.972
X135.573Y-114.036
X139.002Y-93.843
X141.226Y-93.8
X142.812Y-106.438
X143.32Y-93.716
X145.733Y-114.925
X145.987Y-91.176
X148.527Y-118.227
X148.908Y-113.989
X149.035Y-108.705
X152.972Y-104.384
X156.782Y-107.559
X158.196Y-104.257
X160.973Y-113.989
X163.64Y-91.049
X164.609Y-98.034
X164.609Y-110.861
X166.942Y-114.544
X168.809Y-97.907
X168.809Y-110.607
T2
G00X121.469Y-113.539
M15
G01X121.469Y-114.439
M16
G05
G00X121.469Y-117.889
M15
G01X121.469Y-118.489
M16
G05
G00X130.119Y-113.539
M15
G01X130.119Y-114.439
M16
G05
G00X130.119Y-117.889
M15
G01X130.119Y-118.489
M16
G05
G00X150.679Y-113.539
M15
G01X150.679Y-114.439
M16
G05
G00X150.679Y-117.889
M15
G01X150.679Y-118.489
M16
G05
G00X159.329Y-113.539
M15
G01X159.329Y-114.439
M16
G05
G00X159.329Y-117.889
M15
G01X159.329Y-118.489
M16
G05
G00X164.159Y-100.313
M15
G01X165.059Y-100.313
M16
G05
G00X164.159Y-108.963
M15
G01X165.059Y-108.963
M16
G05
G00X168.509Y-100.313
M15
G01X169.109Y-100.313
M16
G05
G00X168.509Y-108.963
M15
G01X169.109Y-108.963
M16
G05
T3
G00X119.598Y-91.872
M15
G01X119.598Y-90.072
M16
G05
G00X132.498Y-91.872
M15
G01X132.498Y-90.072
M16
G05
G00X148.427Y-91.999
M15
G01X148.427Y-90.199
M16
G05
G00X161.327Y-91.999
M15
G01X161.327Y-90.199
M16
G05
M30
