%TF.GenerationSoftware,KiCad,Pcbnew,9.0.7*%
%TF.CreationDate,2026-05-23T10:54:07+05:30*%
%TF.ProjectId,ProPrj_Usb_Hub_2026-05-23,50726f50-726a-45f5-9573-625f4875625f,rev?*%
%TF.SameCoordinates,Original*%
%TF.FileFunction,Legend,Top*%
%TF.FilePolarity,Positive*%
%FSLAX46Y46*%
G04 Gerber Fmt 4.6, Leading zero omitted, Abs format (unit mm)*
G04 Created by KiCad (PCBNEW 9.0.7) date 2026-05-23 10:54:07*
%MOMM*%
%LPD*%
G01*
G04 APERTURE LIST*
%ADD10C,0.152500*%
%ADD11C,0.254000*%
G04 APERTURE END LIST*
D10*
%TO.C,R2*%
X156104000Y-108096500D02*
X157425000Y-108096500D01*
X156104000Y-109055500D02*
X156104000Y-108096500D01*
X156104000Y-109907500D02*
X156104000Y-110866500D01*
X156104000Y-110866500D02*
X157425000Y-110866500D01*
X157425000Y-108096500D02*
X157425000Y-109055500D01*
X157425000Y-110866500D02*
X157425000Y-109907500D01*
D11*
%TO.C,C1*%
X131389000Y-104022000D02*
X131389000Y-103221500D01*
X132498500Y-102912000D02*
X131699000Y-102912000D01*
X132498500Y-104331500D02*
X131699000Y-104331500D01*
X133059000Y-102912500D02*
X133859000Y-102912500D01*
X133059000Y-104332000D02*
X133859000Y-104332000D01*
X134169000Y-103222500D02*
X134169000Y-104022500D01*
X131389000Y-103222000D02*
G75*
G02*
X131699000Y-102912000I310000J0D01*
G01*
X131699000Y-104331500D02*
G75*
G02*
X131389001Y-104022000I350J310350D01*
G01*
X133859000Y-102912500D02*
G75*
G02*
X134169000Y-103222500I0J-310000D01*
G01*
X134169000Y-104022000D02*
G75*
G02*
X133859000Y-104332000I-309148J-852D01*
G01*
%TO.C,USB6*%
X150504000Y-117208000D02*
X150504000Y-115220000D01*
X150504000Y-120789000D02*
X150504000Y-119170000D01*
X159504000Y-120789000D02*
X150504000Y-120789000D01*
X159576000Y-117211000D02*
X159576000Y-115217000D01*
X159576000Y-120640000D02*
X159576000Y-119167000D01*
%TO.C,C6*%
X140516000Y-96601000D02*
X140516000Y-97401000D01*
X140516500Y-96040500D02*
X140516500Y-95241000D01*
X140826000Y-94931000D02*
X141626500Y-94931000D01*
X141625500Y-97711000D02*
X140825500Y-97711000D01*
X141935500Y-96601000D02*
X141935500Y-97401000D01*
X141936000Y-96040500D02*
X141936000Y-95241000D01*
X140516500Y-95241000D02*
G75*
G02*
X140826000Y-94931001I310350J-350D01*
G01*
X140826000Y-97711000D02*
G75*
G02*
X140516000Y-97401000I-852J309148D01*
G01*
X141626000Y-94931000D02*
G75*
G02*
X141936000Y-95241000I0J-310000D01*
G01*
X141935500Y-97401000D02*
G75*
G02*
X141625500Y-97711000I-310000J0D01*
G01*
%TO.C,USB3*%
X148273000Y-88509000D02*
X148273000Y-89332500D01*
X148273000Y-92866000D02*
X148273000Y-98542000D01*
X148273000Y-98542000D02*
X150586000Y-98542000D01*
X149543000Y-96129000D02*
X149891000Y-90392500D01*
X149891000Y-90392500D02*
X152776000Y-90397500D01*
X149923500Y-96129000D02*
X149543000Y-96129000D01*
X149953000Y-95699000D02*
X149923500Y-96129000D01*
X150427000Y-90921000D02*
X149953000Y-95699000D01*
X152177000Y-90910000D02*
X150427000Y-90921000D01*
X152252000Y-91588000D02*
X152177000Y-90910000D01*
X152299000Y-92623500D02*
X150269000Y-92623500D01*
X152439000Y-93833500D02*
X150179000Y-93833500D01*
X152762500Y-96128500D02*
X152252000Y-91588000D01*
X152776000Y-90397500D02*
X153271000Y-96132500D01*
X153086000Y-98542000D02*
X152168000Y-98542000D01*
X153271000Y-96132500D02*
X152762500Y-96128500D01*
X155086000Y-98542000D02*
X154668000Y-98542000D01*
X156372000Y-96198000D02*
X156727500Y-90457500D01*
X156727500Y-90457500D02*
X159623000Y-90457500D01*
X156753000Y-96198000D02*
X156372000Y-96198000D01*
X157342000Y-91062500D02*
X156753000Y-96198000D01*
X157586000Y-98542000D02*
X156668000Y-98542000D01*
X159092500Y-91062500D02*
X157342000Y-91062500D01*
X159168000Y-98542000D02*
X161481000Y-98542000D01*
X159180000Y-92722500D02*
X157150000Y-92722500D01*
X159320000Y-93932500D02*
X157060000Y-93932500D01*
X159597500Y-96198000D02*
X159092500Y-91062500D01*
X159623000Y-90457500D02*
X160105500Y-96198000D01*
X160105500Y-96198000D02*
X159597500Y-96198000D01*
X161481000Y-88509000D02*
X148273000Y-88509000D01*
X161481000Y-89332500D02*
X161481000Y-88509000D01*
X161481000Y-98542000D02*
X161481000Y-92866000D01*
D10*
%TO.C,R3*%
X123846000Y-108477500D02*
X125167000Y-108477500D01*
X123846000Y-109436500D02*
X123846000Y-108477500D01*
X123846000Y-110288500D02*
X123846000Y-111247500D01*
X123846000Y-111247500D02*
X125167000Y-111247500D01*
X125167000Y-108477500D02*
X125167000Y-109436500D01*
X125167000Y-111247500D02*
X125167000Y-110288500D01*
D11*
%TO.C,C11*%
X142610000Y-96536000D02*
X142610000Y-97336000D01*
X142610500Y-95975500D02*
X142610500Y-95176000D01*
X142920000Y-94866000D02*
X143720500Y-94866000D01*
X143719500Y-97646000D02*
X142919500Y-97646000D01*
X144029500Y-96536000D02*
X144029500Y-97336000D01*
X144030000Y-95975500D02*
X144030000Y-95176000D01*
X142610500Y-95176000D02*
G75*
G02*
X142920000Y-94866001I310350J-350D01*
G01*
X142920000Y-97646000D02*
G75*
G02*
X142610000Y-97336000I-852J309148D01*
G01*
X143720000Y-94866000D02*
G75*
G02*
X144030000Y-95176000I0J-310000D01*
G01*
X144029500Y-97336000D02*
G75*
G02*
X143719500Y-97646000I-310000J0D01*
G01*
D10*
%TO.C,R5*%
X157564500Y-102191000D02*
X158523500Y-102191000D01*
X157564500Y-103512000D02*
X157564500Y-102191000D01*
X158523500Y-103512000D02*
X157564500Y-103512000D01*
X159375500Y-103512000D02*
X160334500Y-103512000D01*
X160334500Y-102191000D02*
X159375500Y-102191000D01*
X160334500Y-103512000D02*
X160334500Y-102191000D01*
D11*
%TO.C,C9*%
X144597000Y-106942500D02*
X144597000Y-106142500D01*
X145707000Y-105833000D02*
X144907000Y-105833000D01*
X145707000Y-107252500D02*
X144907000Y-107252500D01*
X146267500Y-105833500D02*
X147067000Y-105833500D01*
X146267500Y-107253000D02*
X147067000Y-107253000D01*
X147377000Y-106143000D02*
X147377000Y-106943500D01*
X144597000Y-106143000D02*
G75*
G02*
X144907000Y-105833000I309148J852D01*
G01*
X144907000Y-107252500D02*
G75*
G02*
X144597000Y-106942500I0J310000D01*
G01*
X147067000Y-105833500D02*
G75*
G02*
X147376999Y-106143000I-350J-310350D01*
G01*
X147377000Y-106943000D02*
G75*
G02*
X147067000Y-107253000I-310000J0D01*
G01*
%TO.C,C2*%
X131387500Y-105931500D02*
X131387500Y-105131000D01*
X132497000Y-104821500D02*
X131697500Y-104821500D01*
X132497000Y-106241000D02*
X131697500Y-106241000D01*
X133057500Y-104822000D02*
X133857500Y-104822000D01*
X133057500Y-106241500D02*
X133857500Y-106241500D01*
X134167500Y-105132000D02*
X134167500Y-105932000D01*
X131387500Y-105131500D02*
G75*
G02*
X131697500Y-104821500I310000J0D01*
G01*
X131697500Y-106241000D02*
G75*
G02*
X131387501Y-105931500I350J310350D01*
G01*
X133857500Y-104822000D02*
G75*
G02*
X134167500Y-105132000I0J-310000D01*
G01*
X134167500Y-105931500D02*
G75*
G02*
X133857500Y-106241500I-309148J-852D01*
G01*
%TO.C,C3*%
X138292000Y-96536000D02*
X138292000Y-97336000D01*
X138292500Y-95975500D02*
X138292500Y-95176000D01*
X138602000Y-94866000D02*
X139402500Y-94866000D01*
X139401500Y-97646000D02*
X138601500Y-97646000D01*
X139711500Y-96536000D02*
X139711500Y-97336000D01*
X139712000Y-95975500D02*
X139712000Y-95176000D01*
X138292500Y-95176000D02*
G75*
G02*
X138602000Y-94866001I310350J-350D01*
G01*
X138602000Y-97646000D02*
G75*
G02*
X138292000Y-97336000I-852J309148D01*
G01*
X139402000Y-94866000D02*
G75*
G02*
X139712000Y-95176000I0J-310000D01*
G01*
X139711500Y-97336000D02*
G75*
G02*
X139401500Y-97646000I-310000J0D01*
G01*
%TO.C,C10*%
X144473000Y-109104500D02*
X144473000Y-108304500D01*
X145583000Y-107995000D02*
X144783000Y-107995000D01*
X145583000Y-109414500D02*
X144783000Y-109414500D01*
X146143500Y-107995500D02*
X146943000Y-107995500D01*
X146143500Y-109415000D02*
X146943000Y-109415000D01*
X147253000Y-108305000D02*
X147253000Y-109105500D01*
X144473000Y-108305000D02*
G75*
G02*
X144783000Y-107995000I309148J852D01*
G01*
X144783000Y-109414500D02*
G75*
G02*
X144473000Y-109104500I0J310000D01*
G01*
X146943000Y-107995500D02*
G75*
G02*
X147252999Y-108305000I-350J-310350D01*
G01*
X147253000Y-109105000D02*
G75*
G02*
X146943000Y-109415000I-310000J0D01*
G01*
%TO.C,C5*%
X158550000Y-109682000D02*
X158550000Y-110482000D01*
X158550500Y-109121500D02*
X158550500Y-108322000D01*
X158860000Y-108012000D02*
X159660500Y-108012000D01*
X159659500Y-110792000D02*
X158859500Y-110792000D01*
X159969500Y-109682000D02*
X159969500Y-110482000D01*
X159970000Y-109121500D02*
X159970000Y-108322000D01*
X158550500Y-108322000D02*
G75*
G02*
X158860000Y-108012001I310350J-350D01*
G01*
X158860000Y-110792000D02*
G75*
G02*
X158550000Y-110482000I-852J309148D01*
G01*
X159660000Y-108012000D02*
G75*
G02*
X159970000Y-108322000I0J-310000D01*
G01*
X159969500Y-110482000D02*
G75*
G02*
X159659500Y-110792000I-310000J0D01*
G01*
%TO.C,U1*%
X137895000Y-103338000D02*
X137895000Y-104138000D01*
X137895000Y-103338000D02*
X137934000Y-103338000D01*
X137895000Y-105938000D02*
X137895000Y-105138000D01*
X137895000Y-105938000D02*
X137934000Y-105938000D01*
X142356000Y-103338000D02*
X142395000Y-103338000D01*
X142395000Y-103338000D02*
X142395000Y-105938000D01*
X142395000Y-105938000D02*
X142356000Y-105938000D01*
X137894500Y-104137500D02*
G75*
G02*
X137895000Y-105138001I-3250J-500252D01*
G01*
X137950000Y-106498000D02*
G75*
G02*
X137700000Y-106498000I-125000J0D01*
G01*
X137700000Y-106498000D02*
G75*
G02*
X137950000Y-106498000I125000J0D01*
G01*
%TO.C,C7*%
X144470000Y-104656500D02*
X144470000Y-103856500D01*
X145580000Y-103547000D02*
X144780000Y-103547000D01*
X145580000Y-104966500D02*
X144780000Y-104966500D01*
X146140500Y-103547500D02*
X146940000Y-103547500D01*
X146140500Y-104967000D02*
X146940000Y-104967000D01*
X147250000Y-103857000D02*
X147250000Y-104657500D01*
X144470000Y-103857000D02*
G75*
G02*
X144780000Y-103547000I309148J852D01*
G01*
X144780000Y-104966500D02*
G75*
G02*
X144470000Y-104656500I0J310000D01*
G01*
X146940000Y-103547500D02*
G75*
G02*
X147249999Y-103857000I-350J-310350D01*
G01*
X147250000Y-104657000D02*
G75*
G02*
X146940000Y-104967000I-310000J0D01*
G01*
%TO.C,USB2*%
X119444000Y-88382000D02*
X119444000Y-89205500D01*
X119444000Y-92739000D02*
X119444000Y-98415000D01*
X119444000Y-98415000D02*
X121757000Y-98415000D01*
X120714000Y-96002000D02*
X121062000Y-90265500D01*
X121062000Y-90265500D02*
X123947000Y-90270500D01*
X121094500Y-96002000D02*
X120714000Y-96002000D01*
X121124000Y-95572000D02*
X121094500Y-96002000D01*
X121598000Y-90794000D02*
X121124000Y-95572000D01*
X123348000Y-90783000D02*
X121598000Y-90794000D01*
X123423000Y-91461000D02*
X123348000Y-90783000D01*
X123470000Y-92496500D02*
X121440000Y-92496500D01*
X123610000Y-93706500D02*
X121350000Y-93706500D01*
X123933500Y-96001500D02*
X123423000Y-91461000D01*
X123947000Y-90270500D02*
X124442000Y-96005500D01*
X124257000Y-98415000D02*
X123339000Y-98415000D01*
X124442000Y-96005500D02*
X123933500Y-96001500D01*
X126257000Y-98415000D02*
X125839000Y-98415000D01*
X127543000Y-96071000D02*
X127898500Y-90330500D01*
X127898500Y-90330500D02*
X130794000Y-90330500D01*
X127924000Y-96071000D02*
X127543000Y-96071000D01*
X128513000Y-90935500D02*
X127924000Y-96071000D01*
X128757000Y-98415000D02*
X127839000Y-98415000D01*
X130263500Y-90935500D02*
X128513000Y-90935500D01*
X130339000Y-98415000D02*
X132652000Y-98415000D01*
X130351000Y-92595500D02*
X128321000Y-92595500D01*
X130491000Y-93805500D02*
X128231000Y-93805500D01*
X130768500Y-96071000D02*
X130263500Y-90935500D01*
X130794000Y-90330500D02*
X131276500Y-96071000D01*
X131276500Y-96071000D02*
X130768500Y-96071000D01*
X132652000Y-88382000D02*
X119444000Y-88382000D01*
X132652000Y-89205500D02*
X132652000Y-88382000D01*
X132652000Y-98415000D02*
X132652000Y-92739000D01*
%TO.C,C8*%
X148915000Y-104783500D02*
X148915000Y-103983500D01*
X150025000Y-103674000D02*
X149225000Y-103674000D01*
X150025000Y-105093500D02*
X149225000Y-105093500D01*
X150585500Y-103674500D02*
X151385000Y-103674500D01*
X150585500Y-105094000D02*
X151385000Y-105094000D01*
X151695000Y-103984000D02*
X151695000Y-104784500D01*
X148915000Y-103984000D02*
G75*
G02*
X149225000Y-103674000I309148J852D01*
G01*
X149225000Y-105093500D02*
G75*
G02*
X148915000Y-104783500I0J310000D01*
G01*
X151385000Y-103674500D02*
G75*
G02*
X151694999Y-103984000I-350J-310350D01*
G01*
X151695000Y-104784000D02*
G75*
G02*
X151385000Y-105094000I-310000J0D01*
G01*
D10*
%TO.C,R1*%
X143667000Y-114310500D02*
X144988000Y-114310500D01*
X143667000Y-115269500D02*
X143667000Y-114310500D01*
X143667000Y-116121500D02*
X143667000Y-117080500D01*
X143667000Y-117080500D02*
X144988000Y-117080500D01*
X144988000Y-114310500D02*
X144988000Y-115269500D01*
X144988000Y-117080500D02*
X144988000Y-116121500D01*
D11*
%TO.C,USB5*%
X121294000Y-117208000D02*
X121294000Y-115220000D01*
X121294000Y-120789000D02*
X121294000Y-119170000D01*
X130294000Y-120789000D02*
X121294000Y-120789000D01*
X130366000Y-117211000D02*
X130366000Y-115217000D01*
X130366000Y-120640000D02*
X130366000Y-119167000D01*
%TO.C,C4*%
X131387500Y-107960500D02*
X131387500Y-107160000D01*
X132497000Y-106850500D02*
X131697500Y-106850500D01*
X132497000Y-108270000D02*
X131697500Y-108270000D01*
X133057500Y-106851000D02*
X133857500Y-106851000D01*
X133057500Y-108270500D02*
X133857500Y-108270500D01*
X134167500Y-107161000D02*
X134167500Y-107961000D01*
X131387500Y-107160500D02*
G75*
G02*
X131697500Y-106850500I310000J0D01*
G01*
X131697500Y-108270000D02*
G75*
G02*
X131387501Y-107960500I350J310350D01*
G01*
X133857500Y-106851000D02*
G75*
G02*
X134167500Y-107161000I0J-310000D01*
G01*
X134167500Y-107960500D02*
G75*
G02*
X133857500Y-108270500I-309148J-852D01*
G01*
D10*
%TO.C,R6*%
X166281500Y-110746000D02*
X166281500Y-111705000D01*
X166281500Y-113516000D02*
X166281500Y-112557000D01*
X167602500Y-110746000D02*
X166281500Y-110746000D01*
X167602500Y-111705000D02*
X167602500Y-110746000D01*
X167602500Y-112557000D02*
X167602500Y-113516000D01*
X167602500Y-113516000D02*
X166281500Y-113516000D01*
%TO.C,R4*%
X131503500Y-113375500D02*
X131503500Y-114696500D01*
X131503500Y-114696500D02*
X132462500Y-114696500D01*
X132462500Y-113375500D02*
X131503500Y-113375500D01*
X133314500Y-113375500D02*
X134273500Y-113375500D01*
X134273500Y-113375500D02*
X134273500Y-114696500D01*
X134273500Y-114696500D02*
X133314500Y-114696500D01*
D11*
%TO.C,USB1*%
X167828000Y-109138000D02*
X165840000Y-109138000D01*
X167831000Y-100066000D02*
X165837000Y-100066000D01*
X171260000Y-100066000D02*
X169787000Y-100066000D01*
X171409000Y-100138000D02*
X171409000Y-109138000D01*
X171409000Y-109138000D02*
X169790000Y-109138000D01*
%TD*%
M02*
