%TF.GenerationSoftware,KiCad,Pcbnew,9.0.7*%
%TF.CreationDate,2026-05-23T10:54:07+05:30*%
%TF.ProjectId,ProPrj_Usb_Hub_2026-05-23,50726f50-726a-45f5-9573-625f4875625f,rev?*%
%TF.SameCoordinates,Original*%
%TF.FileFunction,Copper,L2,Bot*%
%TF.FilePolarity,Positive*%
%FSLAX46Y46*%
G04 Gerber Fmt 4.6, Leading zero omitted, Abs format (unit mm)*
G04 Created by KiCad (PCBNEW 9.0.7) date 2026-05-23 10:54:07*
%MOMM*%
%LPD*%
G01*
G04 APERTURE LIST*
%TA.AperFunction,ComponentPad*%
%ADD10O,1.100000X2.000000*%
%TD*%
%TA.AperFunction,ComponentPad*%
%ADD11O,1.200000X1.800000*%
%TD*%
%TA.AperFunction,ComponentPad*%
%ADD12O,1.200000X3.100000*%
%TD*%
%TA.AperFunction,ComponentPad*%
%ADD13O,2.000000X1.100000*%
%TD*%
%TA.AperFunction,ComponentPad*%
%ADD14O,1.800000X1.200000*%
%TD*%
%TA.AperFunction,ViaPad*%
%ADD15C,0.610000*%
%TD*%
G04 APERTURE END LIST*
D10*
%TO.P,USB6,13*%
%TO.N,GND*%
X150679000Y-113989000D03*
D11*
%TO.N,N/C*%
X150679000Y-118189000D03*
D10*
%TO.P,USB6,14*%
%TO.N,GND*%
X159329000Y-113989000D03*
D11*
%TO.N,N/C*%
X159329000Y-118189000D03*
%TD*%
D12*
%TO.P,USB3,5*%
%TO.N,GND*%
X161327000Y-91099000D03*
%TO.P,USB3,6*%
X148427000Y-91099000D03*
%TD*%
%TO.P,USB2,5*%
%TO.N,GND*%
X132498000Y-90972000D03*
%TO.P,USB2,6*%
X119598000Y-90972000D03*
%TD*%
D10*
%TO.P,USB5,13*%
%TO.N,GND*%
X121469000Y-113989000D03*
D11*
%TO.N,N/C*%
X121469000Y-118189000D03*
D10*
%TO.P,USB5,14*%
%TO.N,GND*%
X130119000Y-113989000D03*
D11*
%TO.N,N/C*%
X130119000Y-118189000D03*
%TD*%
D13*
%TO.P,USB1,13*%
%TO.N,GND*%
X164609000Y-108963000D03*
D14*
%TO.N,N/C*%
X168809000Y-108963000D03*
D13*
%TO.P,USB1,14*%
%TO.N,GND*%
X164609000Y-100313000D03*
D14*
%TO.N,N/C*%
X168809000Y-100313000D03*
%TD*%
D15*
%TO.N,GND*%
X143320000Y-93716000D03*
X156782000Y-107559000D03*
X148527000Y-118227000D03*
X145987000Y-91176000D03*
X134176000Y-90972000D03*
X132398000Y-118189000D03*
X164609000Y-110861000D03*
X148908000Y-113989000D03*
X130239000Y-105527000D03*
X121469000Y-111369000D03*
X163640000Y-91049000D03*
X164609000Y-98034000D03*
X158196500Y-104257000D03*
X124506500Y-107432000D03*
X168809000Y-97907000D03*
X145733000Y-114925000D03*
X149035000Y-108705000D03*
X166942000Y-114544000D03*
X118174000Y-90795000D03*
X141226000Y-93800000D03*
X168809000Y-110607000D03*
X139002000Y-93843000D03*
X152972000Y-104384000D03*
X160973000Y-113989000D03*
X142812000Y-106438000D03*
X135573000Y-114036000D03*
%TD*%
%TA.AperFunction,Conductor*%
%TO.N,GND*%
G36*
X118688780Y-89312306D02*
G01*
X118707086Y-89356500D01*
X118695149Y-89393237D01*
X118657199Y-89445470D01*
X118578591Y-89599743D01*
X118578590Y-89599745D01*
X118525085Y-89764416D01*
X118498001Y-89935416D01*
X118498000Y-89935430D01*
X118498000Y-90722000D01*
X119248000Y-90722000D01*
X119248000Y-91222000D01*
X118498000Y-91222000D01*
X118498000Y-92008569D01*
X118498001Y-92008583D01*
X118525085Y-92179583D01*
X118578590Y-92344254D01*
X118578591Y-92344256D01*
X118657198Y-92498528D01*
X118758968Y-92638604D01*
X118881395Y-92761031D01*
X119021471Y-92862801D01*
X119175743Y-92941408D01*
X119175745Y-92941409D01*
X119340414Y-92994913D01*
X119340418Y-92994914D01*
X119347999Y-92996114D01*
X119348000Y-92996114D01*
X119348000Y-92116975D01*
X119383095Y-92152070D01*
X119462905Y-92198148D01*
X119551922Y-92222000D01*
X119644078Y-92222000D01*
X119733095Y-92198148D01*
X119812905Y-92152070D01*
X119848000Y-92116975D01*
X119848000Y-92996114D01*
X119855581Y-92994914D01*
X119855585Y-92994913D01*
X120020254Y-92941409D01*
X120020256Y-92941408D01*
X120174528Y-92862801D01*
X120314604Y-92761031D01*
X120437031Y-92638604D01*
X120538801Y-92498528D01*
X120617408Y-92344256D01*
X120617409Y-92344254D01*
X120670914Y-92179583D01*
X120697998Y-92008583D01*
X120698000Y-92008569D01*
X120698000Y-91222000D01*
X119948000Y-91222000D01*
X119948000Y-90722000D01*
X120698000Y-90722000D01*
X120698000Y-89935430D01*
X120697998Y-89935416D01*
X120670914Y-89764416D01*
X120617409Y-89599745D01*
X120617408Y-89599743D01*
X120538800Y-89445470D01*
X120500851Y-89393237D01*
X120489683Y-89346723D01*
X120514677Y-89305937D01*
X120551414Y-89294000D01*
X131544586Y-89294000D01*
X131588780Y-89312306D01*
X131607086Y-89356500D01*
X131595149Y-89393237D01*
X131557199Y-89445470D01*
X131478591Y-89599743D01*
X131478590Y-89599745D01*
X131425085Y-89764416D01*
X131398001Y-89935416D01*
X131398000Y-89935430D01*
X131398000Y-90722000D01*
X132148000Y-90722000D01*
X132148000Y-91222000D01*
X131398000Y-91222000D01*
X131398000Y-92008569D01*
X131398001Y-92008583D01*
X131425085Y-92179583D01*
X131478590Y-92344254D01*
X131478591Y-92344256D01*
X131557198Y-92498528D01*
X131658968Y-92638604D01*
X131781395Y-92761031D01*
X131921471Y-92862801D01*
X132075743Y-92941408D01*
X132075745Y-92941409D01*
X132240414Y-92994913D01*
X132240418Y-92994914D01*
X132247999Y-92996114D01*
X132248000Y-92996114D01*
X132248000Y-92116975D01*
X132283095Y-92152070D01*
X132362905Y-92198148D01*
X132451922Y-92222000D01*
X132544078Y-92222000D01*
X132633095Y-92198148D01*
X132712905Y-92152070D01*
X132748000Y-92116975D01*
X132748000Y-92996114D01*
X132755581Y-92994914D01*
X132755585Y-92994913D01*
X132920254Y-92941409D01*
X132920256Y-92941408D01*
X133074528Y-92862801D01*
X133214604Y-92761031D01*
X133337031Y-92638604D01*
X133438801Y-92498528D01*
X133517408Y-92344256D01*
X133517409Y-92344254D01*
X133570914Y-92179583D01*
X133597998Y-92008583D01*
X133598000Y-92008569D01*
X133598000Y-91222000D01*
X132848000Y-91222000D01*
X132848000Y-90722000D01*
X133598000Y-90722000D01*
X133598000Y-89935430D01*
X133597998Y-89935416D01*
X133570914Y-89764416D01*
X133517409Y-89599745D01*
X133517408Y-89599743D01*
X133438800Y-89445470D01*
X133400851Y-89393237D01*
X133389683Y-89346723D01*
X133414677Y-89305937D01*
X133451414Y-89294000D01*
X147575476Y-89294000D01*
X147619670Y-89312306D01*
X147637976Y-89356500D01*
X147619670Y-89400694D01*
X147587973Y-89432390D01*
X147587968Y-89432395D01*
X147486198Y-89572471D01*
X147407591Y-89726743D01*
X147407590Y-89726745D01*
X147354085Y-89891416D01*
X147327001Y-90062416D01*
X147327000Y-90062430D01*
X147327000Y-90849000D01*
X148077000Y-90849000D01*
X148077000Y-91349000D01*
X147327000Y-91349000D01*
X147327000Y-92135569D01*
X147327001Y-92135583D01*
X147354085Y-92306583D01*
X147407590Y-92471254D01*
X147407591Y-92471256D01*
X147486198Y-92625528D01*
X147587968Y-92765604D01*
X147710395Y-92888031D01*
X147850471Y-92989801D01*
X148004743Y-93068408D01*
X148004745Y-93068409D01*
X148169414Y-93121913D01*
X148169418Y-93121914D01*
X148176999Y-93123114D01*
X148177000Y-93123114D01*
X148177000Y-92243975D01*
X148212095Y-92279070D01*
X148291905Y-92325148D01*
X148380922Y-92349000D01*
X148473078Y-92349000D01*
X148562095Y-92325148D01*
X148641905Y-92279070D01*
X148677000Y-92243975D01*
X148677000Y-93123114D01*
X148684581Y-93121914D01*
X148684585Y-93121913D01*
X148849254Y-93068409D01*
X148849256Y-93068408D01*
X149003528Y-92989801D01*
X149143604Y-92888031D01*
X149266031Y-92765604D01*
X149367801Y-92625528D01*
X149446408Y-92471256D01*
X149446409Y-92471254D01*
X149499914Y-92306583D01*
X149526998Y-92135583D01*
X149527000Y-92135569D01*
X149527000Y-91349000D01*
X148777000Y-91349000D01*
X148777000Y-90849000D01*
X149527000Y-90849000D01*
X149527000Y-90062430D01*
X149526998Y-90062416D01*
X149499914Y-89891416D01*
X149446409Y-89726745D01*
X149446408Y-89726743D01*
X149367801Y-89572471D01*
X149266031Y-89432395D01*
X149234330Y-89400694D01*
X149216024Y-89356500D01*
X149234330Y-89312306D01*
X149278524Y-89294000D01*
X160475476Y-89294000D01*
X160519670Y-89312306D01*
X160537976Y-89356500D01*
X160519670Y-89400694D01*
X160487973Y-89432390D01*
X160487968Y-89432395D01*
X160386198Y-89572471D01*
X160307591Y-89726743D01*
X160307590Y-89726745D01*
X160254085Y-89891416D01*
X160227001Y-90062416D01*
X160227000Y-90062430D01*
X160227000Y-90849000D01*
X160977000Y-90849000D01*
X160977000Y-91349000D01*
X160227000Y-91349000D01*
X160227000Y-92135569D01*
X160227001Y-92135583D01*
X160254085Y-92306583D01*
X160307590Y-92471254D01*
X160307591Y-92471256D01*
X160386198Y-92625528D01*
X160487968Y-92765604D01*
X160610395Y-92888031D01*
X160750471Y-92989801D01*
X160904743Y-93068408D01*
X160904745Y-93068409D01*
X161069414Y-93121913D01*
X161069418Y-93121914D01*
X161076999Y-93123114D01*
X161077000Y-93123114D01*
X161077000Y-92243975D01*
X161112095Y-92279070D01*
X161191905Y-92325148D01*
X161280922Y-92349000D01*
X161373078Y-92349000D01*
X161462095Y-92325148D01*
X161541905Y-92279070D01*
X161577000Y-92243975D01*
X161577000Y-93123114D01*
X161584581Y-93121914D01*
X161584585Y-93121913D01*
X161749254Y-93068409D01*
X161749256Y-93068408D01*
X161903528Y-92989801D01*
X162043604Y-92888031D01*
X162166031Y-92765604D01*
X162267801Y-92625528D01*
X162346408Y-92471256D01*
X162346409Y-92471254D01*
X162399914Y-92306583D01*
X162426998Y-92135583D01*
X162427000Y-92135569D01*
X162427000Y-91349000D01*
X161677000Y-91349000D01*
X161677000Y-90849000D01*
X162427000Y-90849000D01*
X162427000Y-90062430D01*
X162426998Y-90062416D01*
X162399914Y-89891416D01*
X162346409Y-89726745D01*
X162346408Y-89726743D01*
X162267801Y-89572471D01*
X162166031Y-89432395D01*
X162134330Y-89400694D01*
X162116024Y-89356500D01*
X162134330Y-89312306D01*
X162178524Y-89294000D01*
X170062000Y-89294000D01*
X170106194Y-89312306D01*
X170124500Y-89356500D01*
X170124500Y-119569000D01*
X170106194Y-119613194D01*
X170062000Y-119631500D01*
X117605500Y-119631500D01*
X117561306Y-119613194D01*
X117543000Y-119569000D01*
X117543000Y-117810157D01*
X120668500Y-117810157D01*
X120668500Y-118567842D01*
X120699262Y-118722495D01*
X120759606Y-118868180D01*
X120847210Y-118999288D01*
X120958711Y-119110789D01*
X121089819Y-119198393D01*
X121089820Y-119198393D01*
X121089821Y-119198394D01*
X121235503Y-119258737D01*
X121390158Y-119289500D01*
X121547842Y-119289500D01*
X121702497Y-119258737D01*
X121848179Y-119198394D01*
X121979289Y-119110789D01*
X122090789Y-118999289D01*
X122178394Y-118868179D01*
X122238737Y-118722497D01*
X122269500Y-118567842D01*
X122269500Y-117810158D01*
X122269500Y-117810157D01*
X129318500Y-117810157D01*
X129318500Y-118567842D01*
X129349262Y-118722495D01*
X129409606Y-118868180D01*
X129497210Y-118999288D01*
X129608711Y-119110789D01*
X129739819Y-119198393D01*
X129739820Y-119198393D01*
X129739821Y-119198394D01*
X129885503Y-119258737D01*
X130040158Y-119289500D01*
X130197842Y-119289500D01*
X130352497Y-119258737D01*
X130498179Y-119198394D01*
X130629289Y-119110789D01*
X130740789Y-118999289D01*
X130828394Y-118868179D01*
X130888737Y-118722497D01*
X130919500Y-118567842D01*
X130919500Y-117810158D01*
X130919500Y-117810157D01*
X149878500Y-117810157D01*
X149878500Y-118567842D01*
X149909262Y-118722495D01*
X149969606Y-118868180D01*
X150057210Y-118999288D01*
X150168711Y-119110789D01*
X150299819Y-119198393D01*
X150299820Y-119198393D01*
X150299821Y-119198394D01*
X150445503Y-119258737D01*
X150600158Y-119289500D01*
X150757842Y-119289500D01*
X150912497Y-119258737D01*
X151058179Y-119198394D01*
X151189289Y-119110789D01*
X151300789Y-118999289D01*
X151388394Y-118868179D01*
X151448737Y-118722497D01*
X151479500Y-118567842D01*
X151479500Y-117810158D01*
X151479500Y-117810157D01*
X158528500Y-117810157D01*
X158528500Y-118567842D01*
X158559262Y-118722495D01*
X158619606Y-118868180D01*
X158707210Y-118999288D01*
X158818711Y-119110789D01*
X158949819Y-119198393D01*
X158949820Y-119198393D01*
X158949821Y-119198394D01*
X159095503Y-119258737D01*
X159250158Y-119289500D01*
X159407842Y-119289500D01*
X159562497Y-119258737D01*
X159708179Y-119198394D01*
X159839289Y-119110789D01*
X159950789Y-118999289D01*
X160038394Y-118868179D01*
X160098737Y-118722497D01*
X160129500Y-118567842D01*
X160129500Y-117810158D01*
X160098737Y-117655503D01*
X160038394Y-117509821D01*
X159950789Y-117378711D01*
X159839289Y-117267211D01*
X159839288Y-117267210D01*
X159708180Y-117179606D01*
X159562495Y-117119262D01*
X159407842Y-117088500D01*
X159250158Y-117088500D01*
X159095504Y-117119262D01*
X158949819Y-117179606D01*
X158818711Y-117267210D01*
X158707210Y-117378711D01*
X158619606Y-117509819D01*
X158559262Y-117655504D01*
X158528500Y-117810157D01*
X151479500Y-117810157D01*
X151448737Y-117655503D01*
X151388394Y-117509821D01*
X151300789Y-117378711D01*
X151189289Y-117267211D01*
X151189288Y-117267210D01*
X151058180Y-117179606D01*
X150912495Y-117119262D01*
X150757842Y-117088500D01*
X150600158Y-117088500D01*
X150445504Y-117119262D01*
X150299819Y-117179606D01*
X150168711Y-117267210D01*
X150057210Y-117378711D01*
X149969606Y-117509819D01*
X149909262Y-117655504D01*
X149878500Y-117810157D01*
X130919500Y-117810157D01*
X130888737Y-117655503D01*
X130828394Y-117509821D01*
X130740789Y-117378711D01*
X130629289Y-117267211D01*
X130629288Y-117267210D01*
X130498180Y-117179606D01*
X130352495Y-117119262D01*
X130197842Y-117088500D01*
X130040158Y-117088500D01*
X129885504Y-117119262D01*
X129739819Y-117179606D01*
X129608711Y-117267210D01*
X129497210Y-117378711D01*
X129409606Y-117509819D01*
X129349262Y-117655504D01*
X129318500Y-117810157D01*
X122269500Y-117810157D01*
X122238737Y-117655503D01*
X122178394Y-117509821D01*
X122090789Y-117378711D01*
X121979289Y-117267211D01*
X121979288Y-117267210D01*
X121848180Y-117179606D01*
X121702495Y-117119262D01*
X121547842Y-117088500D01*
X121390158Y-117088500D01*
X121235504Y-117119262D01*
X121089819Y-117179606D01*
X120958711Y-117267210D01*
X120847210Y-117378711D01*
X120759606Y-117509819D01*
X120699262Y-117655504D01*
X120668500Y-117810157D01*
X117543000Y-117810157D01*
X117543000Y-113435583D01*
X120419000Y-113435583D01*
X120419000Y-113739000D01*
X121169000Y-113739000D01*
X121169000Y-114239000D01*
X120419000Y-114239000D01*
X120419000Y-114542416D01*
X120459349Y-114745272D01*
X120459350Y-114745275D01*
X120538500Y-114936359D01*
X120538503Y-114936364D01*
X120653410Y-115108335D01*
X120799664Y-115254589D01*
X120971635Y-115369496D01*
X120971640Y-115369499D01*
X121162724Y-115448649D01*
X121162727Y-115448650D01*
X121218999Y-115459843D01*
X121219000Y-115459843D01*
X121219000Y-114605988D01*
X121228940Y-114623205D01*
X121284795Y-114679060D01*
X121353204Y-114718556D01*
X121429504Y-114739000D01*
X121508496Y-114739000D01*
X121584796Y-114718556D01*
X121653205Y-114679060D01*
X121709060Y-114623205D01*
X121719000Y-114605988D01*
X121719000Y-115459843D01*
X121775272Y-115448650D01*
X121775275Y-115448649D01*
X121966359Y-115369499D01*
X121966364Y-115369496D01*
X122138335Y-115254589D01*
X122246982Y-115145942D01*
X122291176Y-115127636D01*
X122331819Y-115142933D01*
X122331868Y-115142870D01*
X122332078Y-115143031D01*
X122332388Y-115143148D01*
X122333489Y-115144114D01*
X122333491Y-115144116D01*
X122438185Y-115224451D01*
X122517313Y-115270135D01*
X122639227Y-115320633D01*
X122639235Y-115320635D01*
X122639243Y-115320638D01*
X122727469Y-115344278D01*
X122727473Y-115344278D01*
X122727482Y-115344281D01*
X122858316Y-115361506D01*
X122858322Y-115361506D01*
X122949678Y-115361506D01*
X122949684Y-115361506D01*
X123080518Y-115344281D01*
X123080528Y-115344278D01*
X123080530Y-115344278D01*
X123168756Y-115320638D01*
X123168760Y-115320636D01*
X123168773Y-115320633D01*
X123290687Y-115270135D01*
X123369815Y-115224451D01*
X123474509Y-115144116D01*
X123539116Y-115079509D01*
X123619451Y-114974815D01*
X123665135Y-114895687D01*
X123715633Y-114773773D01*
X123724951Y-114739000D01*
X123739278Y-114685530D01*
X123739278Y-114685528D01*
X123739281Y-114685518D01*
X123756506Y-114554684D01*
X123756506Y-114463316D01*
X123756505Y-114463311D01*
X127831494Y-114463311D01*
X127831494Y-114554688D01*
X127848718Y-114685511D01*
X127848721Y-114685530D01*
X127872361Y-114773756D01*
X127872365Y-114773767D01*
X127922863Y-114895683D01*
X127922864Y-114895686D01*
X127964469Y-114967749D01*
X127968549Y-114974815D01*
X128048884Y-115079509D01*
X128113491Y-115144116D01*
X128218185Y-115224451D01*
X128297313Y-115270135D01*
X128419227Y-115320633D01*
X128419235Y-115320635D01*
X128419243Y-115320638D01*
X128507469Y-115344278D01*
X128507473Y-115344278D01*
X128507482Y-115344281D01*
X128638316Y-115361506D01*
X128638322Y-115361506D01*
X128729678Y-115361506D01*
X128729684Y-115361506D01*
X128860518Y-115344281D01*
X128860528Y-115344278D01*
X128860530Y-115344278D01*
X128948756Y-115320638D01*
X128948760Y-115320636D01*
X128948773Y-115320633D01*
X129070687Y-115270135D01*
X129149815Y-115224451D01*
X129254509Y-115144116D01*
X129254524Y-115144100D01*
X129255612Y-115143148D01*
X129255894Y-115143051D01*
X129256132Y-115142870D01*
X129256193Y-115142950D01*
X129300909Y-115127771D01*
X129341017Y-115145943D01*
X129449662Y-115254587D01*
X129449664Y-115254589D01*
X129621635Y-115369496D01*
X129621640Y-115369499D01*
X129812724Y-115448649D01*
X129812727Y-115448650D01*
X129868999Y-115459843D01*
X129869000Y-115459843D01*
X129869000Y-114605988D01*
X129878940Y-114623205D01*
X129934795Y-114679060D01*
X130003204Y-114718556D01*
X130079504Y-114739000D01*
X130158496Y-114739000D01*
X130234796Y-114718556D01*
X130303205Y-114679060D01*
X130359060Y-114623205D01*
X130369000Y-114605988D01*
X130369000Y-115459843D01*
X130425272Y-115448650D01*
X130425275Y-115448649D01*
X130616359Y-115369499D01*
X130616364Y-115369496D01*
X130788335Y-115254589D01*
X130934589Y-115108335D01*
X131049496Y-114936364D01*
X131049499Y-114936359D01*
X131128649Y-114745275D01*
X131128650Y-114745272D01*
X131168999Y-114542416D01*
X131169000Y-114542416D01*
X131169000Y-114239000D01*
X130419000Y-114239000D01*
X130419000Y-113739000D01*
X131169000Y-113739000D01*
X131169000Y-113435584D01*
X131168999Y-113435583D01*
X149629000Y-113435583D01*
X149629000Y-113739000D01*
X150379000Y-113739000D01*
X150379000Y-114239000D01*
X149629000Y-114239000D01*
X149629000Y-114542416D01*
X149669349Y-114745272D01*
X149669350Y-114745275D01*
X149748500Y-114936359D01*
X149748503Y-114936364D01*
X149863410Y-115108335D01*
X150009664Y-115254589D01*
X150181635Y-115369496D01*
X150181640Y-115369499D01*
X150372724Y-115448649D01*
X150372727Y-115448650D01*
X150428999Y-115459843D01*
X150429000Y-115459843D01*
X150429000Y-114605988D01*
X150438940Y-114623205D01*
X150494795Y-114679060D01*
X150563204Y-114718556D01*
X150639504Y-114739000D01*
X150718496Y-114739000D01*
X150794796Y-114718556D01*
X150863205Y-114679060D01*
X150919060Y-114623205D01*
X150929000Y-114605988D01*
X150929000Y-115459843D01*
X150985272Y-115448650D01*
X150985275Y-115448649D01*
X151176359Y-115369499D01*
X151176364Y-115369496D01*
X151348335Y-115254589D01*
X151456982Y-115145942D01*
X151501176Y-115127636D01*
X151541819Y-115142933D01*
X151541868Y-115142870D01*
X151542078Y-115143031D01*
X151542388Y-115143148D01*
X151543489Y-115144114D01*
X151543491Y-115144116D01*
X151648185Y-115224451D01*
X151727313Y-115270135D01*
X151849227Y-115320633D01*
X151849235Y-115320635D01*
X151849243Y-115320638D01*
X151937469Y-115344278D01*
X151937473Y-115344278D01*
X151937482Y-115344281D01*
X152068316Y-115361506D01*
X152068322Y-115361506D01*
X152159678Y-115361506D01*
X152159684Y-115361506D01*
X152290518Y-115344281D01*
X152290528Y-115344278D01*
X152290530Y-115344278D01*
X152378756Y-115320638D01*
X152378760Y-115320636D01*
X152378773Y-115320633D01*
X152500687Y-115270135D01*
X152579815Y-115224451D01*
X152684509Y-115144116D01*
X152749116Y-115079509D01*
X152829451Y-114974815D01*
X152875135Y-114895687D01*
X152925633Y-114773773D01*
X152934951Y-114739000D01*
X152949278Y-114685530D01*
X152949278Y-114685528D01*
X152949281Y-114685518D01*
X152966506Y-114554684D01*
X152966506Y-114463316D01*
X152966505Y-114463311D01*
X157041494Y-114463311D01*
X157041494Y-114554688D01*
X157058718Y-114685511D01*
X157058721Y-114685530D01*
X157082361Y-114773756D01*
X157082365Y-114773767D01*
X157132863Y-114895683D01*
X157132864Y-114895686D01*
X157174469Y-114967749D01*
X157178549Y-114974815D01*
X157258884Y-115079509D01*
X157323491Y-115144116D01*
X157428185Y-115224451D01*
X157507313Y-115270135D01*
X157629227Y-115320633D01*
X157629235Y-115320635D01*
X157629243Y-115320638D01*
X157717469Y-115344278D01*
X157717473Y-115344278D01*
X157717482Y-115344281D01*
X157848316Y-115361506D01*
X157848322Y-115361506D01*
X157939678Y-115361506D01*
X157939684Y-115361506D01*
X158070518Y-115344281D01*
X158070528Y-115344278D01*
X158070530Y-115344278D01*
X158158756Y-115320638D01*
X158158760Y-115320636D01*
X158158773Y-115320633D01*
X158280687Y-115270135D01*
X158359815Y-115224451D01*
X158464509Y-115144116D01*
X158464524Y-115144100D01*
X158465612Y-115143148D01*
X158465894Y-115143051D01*
X158466132Y-115142870D01*
X158466193Y-115142950D01*
X158510909Y-115127771D01*
X158551017Y-115145943D01*
X158659662Y-115254587D01*
X158659664Y-115254589D01*
X158831635Y-115369496D01*
X158831640Y-115369499D01*
X159022724Y-115448649D01*
X159022727Y-115448650D01*
X159078999Y-115459843D01*
X159079000Y-115459843D01*
X159079000Y-114605988D01*
X159088940Y-114623205D01*
X159144795Y-114679060D01*
X159213204Y-114718556D01*
X159289504Y-114739000D01*
X159368496Y-114739000D01*
X159444796Y-114718556D01*
X159513205Y-114679060D01*
X159569060Y-114623205D01*
X159579000Y-114605988D01*
X159579000Y-115459843D01*
X159635272Y-115448650D01*
X159635275Y-115448649D01*
X159826359Y-115369499D01*
X159826364Y-115369496D01*
X159998335Y-115254589D01*
X160144589Y-115108335D01*
X160259496Y-114936364D01*
X160259499Y-114936359D01*
X160338649Y-114745275D01*
X160338650Y-114745272D01*
X160378999Y-114542416D01*
X160379000Y-114542416D01*
X160379000Y-114239000D01*
X159629000Y-114239000D01*
X159629000Y-113739000D01*
X160379000Y-113739000D01*
X160379000Y-113435584D01*
X160378999Y-113435583D01*
X160338650Y-113232727D01*
X160338649Y-113232724D01*
X160259499Y-113041640D01*
X160259496Y-113041635D01*
X160144589Y-112869664D01*
X159998335Y-112723410D01*
X159826364Y-112608503D01*
X159826359Y-112608500D01*
X159635272Y-112529349D01*
X159579000Y-112518156D01*
X159579000Y-113372011D01*
X159569060Y-113354795D01*
X159513205Y-113298940D01*
X159444796Y-113259444D01*
X159368496Y-113239000D01*
X159289504Y-113239000D01*
X159213204Y-113259444D01*
X159144795Y-113298940D01*
X159088940Y-113354795D01*
X159079000Y-113372011D01*
X159079000Y-112518156D01*
X159078999Y-112518156D01*
X159022727Y-112529349D01*
X158831640Y-112608500D01*
X158831635Y-112608503D01*
X158659664Y-112723410D01*
X158513410Y-112869664D01*
X158398503Y-113041635D01*
X158398500Y-113041640D01*
X158319350Y-113232724D01*
X158319349Y-113232727D01*
X158279000Y-113435583D01*
X158279000Y-113653628D01*
X158260694Y-113697822D01*
X158216500Y-113716128D01*
X158192583Y-113711371D01*
X158158769Y-113697365D01*
X158070530Y-113673721D01*
X158070518Y-113673719D01*
X158070513Y-113673718D01*
X158070511Y-113673718D01*
X157939688Y-113656494D01*
X157939684Y-113656494D01*
X157848316Y-113656494D01*
X157848311Y-113656494D01*
X157717488Y-113673718D01*
X157717469Y-113673721D01*
X157629243Y-113697361D01*
X157629232Y-113697365D01*
X157507316Y-113747863D01*
X157507313Y-113747864D01*
X157428191Y-113793545D01*
X157428188Y-113793547D01*
X157428185Y-113793549D01*
X157372652Y-113836160D01*
X157323489Y-113873885D01*
X157258885Y-113938489D01*
X157221160Y-113987652D01*
X157178549Y-114043185D01*
X157178547Y-114043188D01*
X157178545Y-114043191D01*
X157132864Y-114122313D01*
X157132863Y-114122316D01*
X157082365Y-114244232D01*
X157082361Y-114244243D01*
X157058721Y-114332469D01*
X157058718Y-114332488D01*
X157041494Y-114463311D01*
X152966505Y-114463311D01*
X152949281Y-114332482D01*
X152949278Y-114332469D01*
X152925638Y-114244243D01*
X152925634Y-114244232D01*
X152925633Y-114244227D01*
X152875135Y-114122313D01*
X152829451Y-114043185D01*
X152749116Y-113938491D01*
X152684509Y-113873884D01*
X152579815Y-113793549D01*
X152572749Y-113789469D01*
X152500686Y-113747864D01*
X152500683Y-113747863D01*
X152424066Y-113716128D01*
X152378773Y-113697367D01*
X152378769Y-113697366D01*
X152378767Y-113697365D01*
X152378756Y-113697361D01*
X152290530Y-113673721D01*
X152290518Y-113673719D01*
X152290513Y-113673718D01*
X152290511Y-113673718D01*
X152159688Y-113656494D01*
X152159684Y-113656494D01*
X152068316Y-113656494D01*
X152068311Y-113656494D01*
X151937488Y-113673718D01*
X151937469Y-113673721D01*
X151849230Y-113697365D01*
X151815417Y-113711371D01*
X151767582Y-113711370D01*
X151733757Y-113677545D01*
X151729000Y-113653628D01*
X151729000Y-113435584D01*
X151728999Y-113435583D01*
X151688650Y-113232727D01*
X151688649Y-113232724D01*
X151609499Y-113041640D01*
X151609496Y-113041635D01*
X151494589Y-112869664D01*
X151348335Y-112723410D01*
X151176364Y-112608503D01*
X151176359Y-112608500D01*
X150985272Y-112529349D01*
X150929000Y-112518156D01*
X150929000Y-113372011D01*
X150919060Y-113354795D01*
X150863205Y-113298940D01*
X150794796Y-113259444D01*
X150718496Y-113239000D01*
X150639504Y-113239000D01*
X150563204Y-113259444D01*
X150494795Y-113298940D01*
X150438940Y-113354795D01*
X150429000Y-113372011D01*
X150429000Y-112518156D01*
X150428999Y-112518156D01*
X150372727Y-112529349D01*
X150181640Y-112608500D01*
X150181635Y-112608503D01*
X150009664Y-112723410D01*
X149863410Y-112869664D01*
X149748503Y-113041635D01*
X149748500Y-113041640D01*
X149669350Y-113232724D01*
X149669349Y-113232727D01*
X149629000Y-113435583D01*
X131168999Y-113435583D01*
X131128650Y-113232727D01*
X131128649Y-113232724D01*
X131049499Y-113041640D01*
X131049496Y-113041635D01*
X130934589Y-112869664D01*
X130788335Y-112723410D01*
X130616364Y-112608503D01*
X130616359Y-112608500D01*
X130425272Y-112529349D01*
X130369000Y-112518156D01*
X130369000Y-113372011D01*
X130359060Y-113354795D01*
X130303205Y-113298940D01*
X130234796Y-113259444D01*
X130158496Y-113239000D01*
X130079504Y-113239000D01*
X130003204Y-113259444D01*
X129934795Y-113298940D01*
X129878940Y-113354795D01*
X129869000Y-113372011D01*
X129869000Y-112518156D01*
X129868999Y-112518156D01*
X129812727Y-112529349D01*
X129621640Y-112608500D01*
X129621635Y-112608503D01*
X129449664Y-112723410D01*
X129303410Y-112869664D01*
X129188503Y-113041635D01*
X129188500Y-113041640D01*
X129109350Y-113232724D01*
X129109349Y-113232727D01*
X129069000Y-113435583D01*
X129069000Y-113653628D01*
X129050694Y-113697822D01*
X129006500Y-113716128D01*
X128982583Y-113711371D01*
X128948769Y-113697365D01*
X128860530Y-113673721D01*
X128860518Y-113673719D01*
X128860513Y-113673718D01*
X128860511Y-113673718D01*
X128729688Y-113656494D01*
X128729684Y-113656494D01*
X128638316Y-113656494D01*
X128638311Y-113656494D01*
X128507488Y-113673718D01*
X128507469Y-113673721D01*
X128419243Y-113697361D01*
X128419232Y-113697365D01*
X128297316Y-113747863D01*
X128297313Y-113747864D01*
X128218191Y-113793545D01*
X128218188Y-113793547D01*
X128218185Y-113793549D01*
X128162652Y-113836160D01*
X128113489Y-113873885D01*
X128048885Y-113938489D01*
X128011160Y-113987652D01*
X127968549Y-114043185D01*
X127968547Y-114043188D01*
X127968545Y-114043191D01*
X127922864Y-114122313D01*
X127922863Y-114122316D01*
X127872365Y-114244232D01*
X127872361Y-114244243D01*
X127848721Y-114332469D01*
X127848718Y-114332488D01*
X127831494Y-114463311D01*
X123756505Y-114463311D01*
X123739281Y-114332482D01*
X123739278Y-114332469D01*
X123715638Y-114244243D01*
X123715634Y-114244232D01*
X123715633Y-114244227D01*
X123665135Y-114122313D01*
X123619451Y-114043185D01*
X123539116Y-113938491D01*
X123474509Y-113873884D01*
X123369815Y-113793549D01*
X123362749Y-113789469D01*
X123290686Y-113747864D01*
X123290683Y-113747863D01*
X123214066Y-113716128D01*
X123168773Y-113697367D01*
X123168769Y-113697366D01*
X123168767Y-113697365D01*
X123168756Y-113697361D01*
X123080530Y-113673721D01*
X123080518Y-113673719D01*
X123080513Y-113673718D01*
X123080511Y-113673718D01*
X122949688Y-113656494D01*
X122949684Y-113656494D01*
X122858316Y-113656494D01*
X122858311Y-113656494D01*
X122727488Y-113673718D01*
X122727469Y-113673721D01*
X122639230Y-113697365D01*
X122605417Y-113711371D01*
X122557582Y-113711370D01*
X122523757Y-113677545D01*
X122519000Y-113653628D01*
X122519000Y-113435584D01*
X122518999Y-113435583D01*
X122478650Y-113232727D01*
X122478649Y-113232724D01*
X122399499Y-113041640D01*
X122399496Y-113041635D01*
X122284589Y-112869664D01*
X122138335Y-112723410D01*
X121966364Y-112608503D01*
X121966359Y-112608500D01*
X121775272Y-112529349D01*
X121719000Y-112518156D01*
X121719000Y-113372011D01*
X121709060Y-113354795D01*
X121653205Y-113298940D01*
X121584796Y-113259444D01*
X121508496Y-113239000D01*
X121429504Y-113239000D01*
X121353204Y-113259444D01*
X121284795Y-113298940D01*
X121228940Y-113354795D01*
X121219000Y-113372011D01*
X121219000Y-112518156D01*
X121218999Y-112518156D01*
X121162727Y-112529349D01*
X120971640Y-112608500D01*
X120971635Y-112608503D01*
X120799664Y-112723410D01*
X120653410Y-112869664D01*
X120538503Y-113041635D01*
X120538500Y-113041640D01*
X120459350Y-113232724D01*
X120459349Y-113232727D01*
X120419000Y-113435583D01*
X117543000Y-113435583D01*
X117543000Y-108712999D01*
X163138156Y-108712999D01*
X163138157Y-108713000D01*
X163992012Y-108713000D01*
X163974795Y-108722940D01*
X163918940Y-108778795D01*
X163879444Y-108847204D01*
X163859000Y-108923504D01*
X163859000Y-109002496D01*
X163879444Y-109078796D01*
X163918940Y-109147205D01*
X163974795Y-109203060D01*
X163992012Y-109213000D01*
X163138157Y-109213000D01*
X163149349Y-109269272D01*
X163149350Y-109269275D01*
X163228500Y-109460359D01*
X163228503Y-109460364D01*
X163343410Y-109632335D01*
X163489664Y-109778589D01*
X163661635Y-109893496D01*
X163661640Y-109893499D01*
X163852724Y-109972649D01*
X163852727Y-109972650D01*
X164055583Y-110012999D01*
X164055584Y-110013000D01*
X164359000Y-110013000D01*
X164359000Y-109263000D01*
X164859000Y-109263000D01*
X164859000Y-110013000D01*
X165162416Y-110013000D01*
X165162416Y-110012999D01*
X165365272Y-109972650D01*
X165365275Y-109972649D01*
X165556359Y-109893499D01*
X165556364Y-109893496D01*
X165728335Y-109778589D01*
X165874589Y-109632335D01*
X165989496Y-109460364D01*
X165989499Y-109460359D01*
X166068649Y-109269275D01*
X166068650Y-109269272D01*
X166079843Y-109213000D01*
X165225988Y-109213000D01*
X165243205Y-109203060D01*
X165299060Y-109147205D01*
X165338556Y-109078796D01*
X165359000Y-109002496D01*
X165359000Y-108923504D01*
X165348457Y-108884157D01*
X167708500Y-108884157D01*
X167708500Y-109041842D01*
X167739262Y-109196495D01*
X167799606Y-109342180D01*
X167887210Y-109473288D01*
X167998711Y-109584789D01*
X168129819Y-109672393D01*
X168129820Y-109672393D01*
X168129821Y-109672394D01*
X168275503Y-109732737D01*
X168430158Y-109763500D01*
X169187842Y-109763500D01*
X169342497Y-109732737D01*
X169488179Y-109672394D01*
X169619289Y-109584789D01*
X169730789Y-109473289D01*
X169818394Y-109342179D01*
X169878737Y-109196497D01*
X169909500Y-109041842D01*
X169909500Y-108884158D01*
X169878737Y-108729503D01*
X169818394Y-108583821D01*
X169730789Y-108452711D01*
X169619289Y-108341211D01*
X169619288Y-108341210D01*
X169488180Y-108253606D01*
X169342495Y-108193262D01*
X169187842Y-108162500D01*
X168430158Y-108162500D01*
X168275504Y-108193262D01*
X168129819Y-108253606D01*
X167998711Y-108341210D01*
X167887210Y-108452711D01*
X167799606Y-108583819D01*
X167739262Y-108729504D01*
X167708500Y-108884157D01*
X165348457Y-108884157D01*
X165338556Y-108847204D01*
X165299060Y-108778795D01*
X165243205Y-108722940D01*
X165225988Y-108713000D01*
X166079843Y-108713000D01*
X166079843Y-108712999D01*
X166068650Y-108656727D01*
X166068649Y-108656724D01*
X165989499Y-108465640D01*
X165989496Y-108465635D01*
X165874589Y-108293664D01*
X165874587Y-108293662D01*
X165765943Y-108185017D01*
X165747637Y-108140823D01*
X165762933Y-108100180D01*
X165762870Y-108100132D01*
X165763031Y-108099921D01*
X165763148Y-108099612D01*
X165764100Y-108098524D01*
X165764116Y-108098509D01*
X165844451Y-107993815D01*
X165890135Y-107914687D01*
X165940633Y-107792773D01*
X165964281Y-107704518D01*
X165981506Y-107573684D01*
X165981506Y-107482316D01*
X165964281Y-107351482D01*
X165964278Y-107351469D01*
X165940638Y-107263243D01*
X165940634Y-107263232D01*
X165940633Y-107263227D01*
X165890135Y-107141313D01*
X165844451Y-107062185D01*
X165764116Y-106957491D01*
X165699509Y-106892884D01*
X165594815Y-106812549D01*
X165587749Y-106808469D01*
X165515686Y-106766864D01*
X165515683Y-106766863D01*
X165465181Y-106745945D01*
X165393773Y-106716367D01*
X165393769Y-106716366D01*
X165393767Y-106716365D01*
X165393756Y-106716361D01*
X165305530Y-106692721D01*
X165305518Y-106692719D01*
X165305513Y-106692718D01*
X165305511Y-106692718D01*
X165174688Y-106675494D01*
X165174684Y-106675494D01*
X165083316Y-106675494D01*
X165083311Y-106675494D01*
X164952488Y-106692718D01*
X164952469Y-106692721D01*
X164864243Y-106716361D01*
X164864232Y-106716365D01*
X164742316Y-106766863D01*
X164742313Y-106766864D01*
X164663191Y-106812545D01*
X164663188Y-106812547D01*
X164663185Y-106812549D01*
X164607652Y-106855160D01*
X164558489Y-106892885D01*
X164493885Y-106957489D01*
X164456160Y-107006652D01*
X164413549Y-107062185D01*
X164413547Y-107062188D01*
X164413545Y-107062191D01*
X164367864Y-107141313D01*
X164367863Y-107141316D01*
X164317365Y-107263232D01*
X164317361Y-107263243D01*
X164293721Y-107351469D01*
X164293718Y-107351488D01*
X164276494Y-107482311D01*
X164276494Y-107573688D01*
X164293718Y-107704511D01*
X164293721Y-107704530D01*
X164317365Y-107792769D01*
X164331371Y-107826583D01*
X164331370Y-107874418D01*
X164297545Y-107908243D01*
X164273628Y-107913000D01*
X164055584Y-107913000D01*
X163852727Y-107953349D01*
X163852724Y-107953350D01*
X163661640Y-108032500D01*
X163661635Y-108032503D01*
X163489664Y-108147410D01*
X163343410Y-108293664D01*
X163228503Y-108465635D01*
X163228500Y-108465640D01*
X163149350Y-108656724D01*
X163149349Y-108656727D01*
X163138156Y-108712999D01*
X117543000Y-108712999D01*
X117543000Y-100062999D01*
X163138156Y-100062999D01*
X163138157Y-100063000D01*
X163992012Y-100063000D01*
X163974795Y-100072940D01*
X163918940Y-100128795D01*
X163879444Y-100197204D01*
X163859000Y-100273504D01*
X163859000Y-100352496D01*
X163879444Y-100428796D01*
X163918940Y-100497205D01*
X163974795Y-100553060D01*
X163992012Y-100563000D01*
X163138157Y-100563000D01*
X163149349Y-100619272D01*
X163149350Y-100619275D01*
X163228500Y-100810359D01*
X163228503Y-100810364D01*
X163343410Y-100982335D01*
X163489664Y-101128589D01*
X163661635Y-101243496D01*
X163661640Y-101243499D01*
X163852724Y-101322649D01*
X163852727Y-101322650D01*
X164055583Y-101362999D01*
X164055584Y-101363000D01*
X164273628Y-101363000D01*
X164317822Y-101381306D01*
X164336128Y-101425500D01*
X164331371Y-101449417D01*
X164317365Y-101483230D01*
X164293721Y-101571469D01*
X164293718Y-101571488D01*
X164276494Y-101702311D01*
X164276494Y-101793688D01*
X164293718Y-101924511D01*
X164293721Y-101924530D01*
X164317361Y-102012756D01*
X164317365Y-102012767D01*
X164367863Y-102134683D01*
X164367864Y-102134686D01*
X164367865Y-102134687D01*
X164413549Y-102213815D01*
X164493884Y-102318509D01*
X164558491Y-102383116D01*
X164663185Y-102463451D01*
X164742313Y-102509135D01*
X164864227Y-102559633D01*
X164864235Y-102559635D01*
X164864243Y-102559638D01*
X164952469Y-102583278D01*
X164952473Y-102583278D01*
X164952482Y-102583281D01*
X165083316Y-102600506D01*
X165083322Y-102600506D01*
X165174678Y-102600506D01*
X165174684Y-102600506D01*
X165305518Y-102583281D01*
X165305528Y-102583278D01*
X165305530Y-102583278D01*
X165393756Y-102559638D01*
X165393760Y-102559636D01*
X165393773Y-102559633D01*
X165515687Y-102509135D01*
X165594815Y-102463451D01*
X165699509Y-102383116D01*
X165764116Y-102318509D01*
X165844451Y-102213815D01*
X165890135Y-102134687D01*
X165940633Y-102012773D01*
X165964281Y-101924518D01*
X165981506Y-101793684D01*
X165981506Y-101702316D01*
X165964281Y-101571482D01*
X165964278Y-101571469D01*
X165940638Y-101483243D01*
X165940634Y-101483232D01*
X165940633Y-101483227D01*
X165890135Y-101361313D01*
X165844451Y-101282185D01*
X165764116Y-101177491D01*
X165764115Y-101177490D01*
X165763148Y-101176388D01*
X165763051Y-101176105D01*
X165762870Y-101175868D01*
X165762950Y-101175806D01*
X165747770Y-101131092D01*
X165765942Y-101090982D01*
X165874589Y-100982335D01*
X165989496Y-100810364D01*
X165989499Y-100810359D01*
X166068649Y-100619275D01*
X166068650Y-100619272D01*
X166079843Y-100563000D01*
X165225988Y-100563000D01*
X165243205Y-100553060D01*
X165299060Y-100497205D01*
X165338556Y-100428796D01*
X165359000Y-100352496D01*
X165359000Y-100273504D01*
X165348457Y-100234157D01*
X167708500Y-100234157D01*
X167708500Y-100391842D01*
X167739262Y-100546495D01*
X167799606Y-100692180D01*
X167887210Y-100823288D01*
X167998711Y-100934789D01*
X168129819Y-101022393D01*
X168129820Y-101022393D01*
X168129821Y-101022394D01*
X168275503Y-101082737D01*
X168430158Y-101113500D01*
X169187842Y-101113500D01*
X169342497Y-101082737D01*
X169488179Y-101022394D01*
X169619289Y-100934789D01*
X169730789Y-100823289D01*
X169818394Y-100692179D01*
X169878737Y-100546497D01*
X169909500Y-100391842D01*
X169909500Y-100234158D01*
X169878737Y-100079503D01*
X169818394Y-99933821D01*
X169730789Y-99802711D01*
X169619289Y-99691211D01*
X169619288Y-99691210D01*
X169488180Y-99603606D01*
X169342495Y-99543262D01*
X169187842Y-99512500D01*
X168430158Y-99512500D01*
X168275504Y-99543262D01*
X168129819Y-99603606D01*
X167998711Y-99691210D01*
X167887210Y-99802711D01*
X167799606Y-99933819D01*
X167739262Y-100079504D01*
X167708500Y-100234157D01*
X165348457Y-100234157D01*
X165338556Y-100197204D01*
X165299060Y-100128795D01*
X165243205Y-100072940D01*
X165225988Y-100063000D01*
X166079843Y-100063000D01*
X166079843Y-100062999D01*
X166068650Y-100006727D01*
X166068649Y-100006724D01*
X165989499Y-99815640D01*
X165989496Y-99815635D01*
X165874589Y-99643664D01*
X165728335Y-99497410D01*
X165556364Y-99382503D01*
X165556359Y-99382500D01*
X165365275Y-99303350D01*
X165365272Y-99303349D01*
X165162416Y-99263000D01*
X164859000Y-99263000D01*
X164859000Y-100013000D01*
X164359000Y-100013000D01*
X164359000Y-99263000D01*
X164055584Y-99263000D01*
X163852727Y-99303349D01*
X163852724Y-99303350D01*
X163661640Y-99382500D01*
X163661635Y-99382503D01*
X163489664Y-99497410D01*
X163343410Y-99643664D01*
X163228503Y-99815635D01*
X163228500Y-99815640D01*
X163149350Y-100006724D01*
X163149349Y-100006727D01*
X163138156Y-100062999D01*
X117543000Y-100062999D01*
X117543000Y-89356500D01*
X117561306Y-89312306D01*
X117605500Y-89294000D01*
X118644586Y-89294000D01*
X118688780Y-89312306D01*
G37*
%TD.AperFunction*%
%TD*%
M02*
