%TF.GenerationSoftware,KiCad,Pcbnew,9.0.7*%
%TF.CreationDate,2026-05-23T10:54:07+05:30*%
%TF.ProjectId,ProPrj_Usb_Hub_2026-05-23,50726f50-726a-45f5-9573-625f4875625f,rev?*%
%TF.SameCoordinates,Original*%
%TF.FileFunction,Profile,NP*%
%FSLAX46Y46*%
G04 Gerber Fmt 4.6, Leading zero omitted, Abs format (unit mm)*
G04 Created by KiCad (PCBNEW 9.0.7) date 2026-05-23 10:54:07*
%MOMM*%
%LPD*%
G01*
G04 APERTURE LIST*
%TA.AperFunction,Profile*%
%ADD10C,0.254000*%
%TD*%
%TA.AperFunction,Profile*%
%ADD11C,0.000000*%
%TD*%
G04 APERTURE END LIST*
D10*
X117042500Y-88793500D02*
X170625000Y-88793500D01*
X170625000Y-120132000D01*
X117042500Y-120132000D01*
X117042500Y-88793500D01*
D11*
%TA.AperFunction,Profile*%
%TO.C,USB6*%
G36*
X152247939Y-114185642D02*
G01*
X152327067Y-114231326D01*
X152391674Y-114295933D01*
X152437358Y-114375061D01*
X152461006Y-114463316D01*
X152461006Y-114554684D01*
X152437358Y-114642939D01*
X152391674Y-114722067D01*
X152327067Y-114786674D01*
X152247939Y-114832358D01*
X152159684Y-114856006D01*
X152068316Y-114856006D01*
X151980061Y-114832358D01*
X151900933Y-114786674D01*
X151836326Y-114722067D01*
X151790642Y-114642939D01*
X151766994Y-114554684D01*
X151766994Y-114463316D01*
X151790642Y-114375061D01*
X151836326Y-114295933D01*
X151900933Y-114231326D01*
X151980061Y-114185642D01*
X152068316Y-114161994D01*
X152159684Y-114161994D01*
X152247939Y-114185642D01*
G37*
%TD.AperFunction*%
%TA.AperFunction,Profile*%
G36*
X158027939Y-114185642D02*
G01*
X158107067Y-114231326D01*
X158171674Y-114295933D01*
X158217358Y-114375061D01*
X158241006Y-114463316D01*
X158241006Y-114554684D01*
X158217358Y-114642939D01*
X158171674Y-114722067D01*
X158107067Y-114786674D01*
X158027939Y-114832358D01*
X157939684Y-114856006D01*
X157848316Y-114856006D01*
X157760061Y-114832358D01*
X157680933Y-114786674D01*
X157616326Y-114722067D01*
X157570642Y-114642939D01*
X157546994Y-114554684D01*
X157546994Y-114463316D01*
X157570642Y-114375061D01*
X157616326Y-114295933D01*
X157680933Y-114231326D01*
X157760061Y-114185642D01*
X157848316Y-114161994D01*
X157939684Y-114161994D01*
X158027939Y-114185642D01*
G37*
%TD.AperFunction*%
%TA.AperFunction,Profile*%
%TO.C,USB5*%
G36*
X123037939Y-114185642D02*
G01*
X123117067Y-114231326D01*
X123181674Y-114295933D01*
X123227358Y-114375061D01*
X123251006Y-114463316D01*
X123251006Y-114554684D01*
X123227358Y-114642939D01*
X123181674Y-114722067D01*
X123117067Y-114786674D01*
X123037939Y-114832358D01*
X122949684Y-114856006D01*
X122858316Y-114856006D01*
X122770061Y-114832358D01*
X122690933Y-114786674D01*
X122626326Y-114722067D01*
X122580642Y-114642939D01*
X122556994Y-114554684D01*
X122556994Y-114463316D01*
X122580642Y-114375061D01*
X122626326Y-114295933D01*
X122690933Y-114231326D01*
X122770061Y-114185642D01*
X122858316Y-114161994D01*
X122949684Y-114161994D01*
X123037939Y-114185642D01*
G37*
%TD.AperFunction*%
%TA.AperFunction,Profile*%
G36*
X128817939Y-114185642D02*
G01*
X128897067Y-114231326D01*
X128961674Y-114295933D01*
X129007358Y-114375061D01*
X129031006Y-114463316D01*
X129031006Y-114554684D01*
X129007358Y-114642939D01*
X128961674Y-114722067D01*
X128897067Y-114786674D01*
X128817939Y-114832358D01*
X128729684Y-114856006D01*
X128638316Y-114856006D01*
X128550061Y-114832358D01*
X128470933Y-114786674D01*
X128406326Y-114722067D01*
X128360642Y-114642939D01*
X128336994Y-114554684D01*
X128336994Y-114463316D01*
X128360642Y-114375061D01*
X128406326Y-114295933D01*
X128470933Y-114231326D01*
X128550061Y-114185642D01*
X128638316Y-114161994D01*
X128729684Y-114161994D01*
X128817939Y-114185642D01*
G37*
%TD.AperFunction*%
%TA.AperFunction,Profile*%
%TO.C,USB1*%
G36*
X165262939Y-101424642D02*
G01*
X165342067Y-101470326D01*
X165406674Y-101534933D01*
X165452358Y-101614061D01*
X165476006Y-101702316D01*
X165476006Y-101793684D01*
X165452358Y-101881939D01*
X165406674Y-101961067D01*
X165342067Y-102025674D01*
X165262939Y-102071358D01*
X165174684Y-102095006D01*
X165083316Y-102095006D01*
X164995061Y-102071358D01*
X164915933Y-102025674D01*
X164851326Y-101961067D01*
X164805642Y-101881939D01*
X164781994Y-101793684D01*
X164781994Y-101702316D01*
X164805642Y-101614061D01*
X164851326Y-101534933D01*
X164915933Y-101470326D01*
X164995061Y-101424642D01*
X165083316Y-101400994D01*
X165174684Y-101400994D01*
X165262939Y-101424642D01*
G37*
%TD.AperFunction*%
%TA.AperFunction,Profile*%
G36*
X165262939Y-107204642D02*
G01*
X165342067Y-107250326D01*
X165406674Y-107314933D01*
X165452358Y-107394061D01*
X165476006Y-107482316D01*
X165476006Y-107573684D01*
X165452358Y-107661939D01*
X165406674Y-107741067D01*
X165342067Y-107805674D01*
X165262939Y-107851358D01*
X165174684Y-107875006D01*
X165083316Y-107875006D01*
X164995061Y-107851358D01*
X164915933Y-107805674D01*
X164851326Y-107741067D01*
X164805642Y-107661939D01*
X164781994Y-107573684D01*
X164781994Y-107482316D01*
X164805642Y-107394061D01*
X164851326Y-107314933D01*
X164915933Y-107250326D01*
X164995061Y-107204642D01*
X165083316Y-107180994D01*
X165174684Y-107180994D01*
X165262939Y-107204642D01*
G37*
%TD.AperFunction*%
%TD*%
M02*
